<svg width="939" height="941" viewBox="0 0 939 941" fill="none" xmlns="http://www.w3.org/2000/svg">
<path d="M298.111 157.378L157.383 16.6501L16.655 157.378L157.383 298.106L298.111 157.378Z" fill="#E8F1A0"/>
<path d="M0.786011 313.965C83.8464 313.965 163.505 346.961 222.237 405.693C280.97 464.426 313.965 544.084 313.965 627.145H0.786011V313.965Z" fill="#FFA682"/>
<path d="M0.786011 627.144C83.8464 627.144 163.505 660.14 222.237 718.872C280.97 777.605 313.965 857.263 313.965 940.324H0.786011V627.144Z" fill="#FFA682"/>
<path d="M313.965 0.786133H627.145V313.966C544.085 313.966 464.426 280.97 405.694 222.237C346.961 163.505 313.965 83.8465 313.965 0.786133Z" fill="#FFA682"/>
<path d="M313.965 313.965C397.026 313.965 476.684 346.961 535.417 405.693C594.149 464.426 627.145 544.084 627.145 627.145H313.965V313.965Z" fill="#FFA682"/>
<path d="M313.965 627.144C397.026 627.144 476.684 660.14 535.417 718.872C594.149 777.605 627.145 857.263 627.145 940.324H313.965V627.144Z" fill="#FFA682"/>
<path d="M625.697 0.786133H938.877V313.966C855.816 313.966 776.158 280.97 717.425 222.237C658.693 163.505 625.697 83.8465 625.697 0.786133Z" fill="#FFA682"/>
<path d="M625.697 313.965C708.757 313.965 788.416 346.961 847.148 405.693C905.881 464.426 938.877 544.084 938.877 627.145H625.697V313.965Z" fill="#FFA682"/>
<path d="M782.287 911.588C847.409 911.588 900.202 858.795 900.202 793.673C900.202 728.55 847.409 675.758 782.287 675.758C717.164 675.758 664.372 728.55 664.372 793.673C664.372 858.795 717.164 911.588 782.287 911.588Z" fill="#BC9DFB"/>
</svg>
