<svg width="21" height="10" viewBox="0 0 21 10" fill="none" xmlns="http://www.w3.org/2000/svg">
<path d="M19.83 4.77164C20.0469 4.97827 20.2205 5.15635 20.3471 5.2941C20.2235 5.41264 20.0578 5.56262 19.8527 5.73532C19.3392 6.16792 18.5913 6.73289 17.6657 7.29324C15.8081 8.4178 13.274 9.5 10.5 9.5C7.72595 9.5 5.19192 8.4178 3.33432 7.29324C2.4087 6.73289 1.66084 6.16792 1.14726 5.73532C0.942232 5.56262 0.776458 5.41264 0.6529 5.2941C0.779496 5.15635 0.953092 4.97828 1.17001 4.77164C1.68482 4.28124 2.43325 3.63987 3.35867 3.00353C5.21809 1.72497 7.74334 0.5 10.5 0.5C13.2567 0.5 15.7819 1.72497 17.6413 3.00353C18.5668 3.63987 19.3152 4.28124 19.83 4.77164Z" fill="black" stroke="white"/>
<path d="M14.1365 4.0625C14.1365 6.02156 12.517 7.625 10.5001 7.625C8.48329 7.625 6.86377 6.02156 6.86377 4.0625C6.86377 2.10344 8.48329 0.5 10.5001 0.5C12.517 0.5 14.1365 2.10344 14.1365 4.0625Z" fill="black" stroke="white"/>
<ellipse cx="10.4996" cy="4.0625" rx="1.59091" ry="1.5625" fill="#F2F2F2"/>
</svg>
